<svg xmlns="http://www.w3.org/2000/svg" style="display: none;">
  <!-- Search icon -->
  <symbol id="icon-search" viewBox="0 0 24 24">
    <path d="M15.5 14h-.79l-.28-.27C15.41 12.59 16 11.11 16 9.5 16 5.91 13.09 3 9.5 3S3 5.91 3 9.5 5.91 16 9.5 16c1.61 0 3.09-.59 4.23-1.57l.27.28v.79l5 4.99L20.49 19l-4.99-5zm-6 0C7.01 14 5 11.99 5 9.5S7.01 5 9.5 5 14 7.01 14 9.5 11.99 14 9.5 14z"/>
  </symbol>

  <!-- Edit icon -->
  <symbol id="icon-edit" viewBox="0 0 24 24">
    <path d="M3 17.25V21h3.75L17.81 9.94l-3.75-3.75L3 17.25zM20.71 7.04c.39-.39.39-1.02 0-1.41l-2.34-2.34c-.39-.39-1.02-.39-1.41 0l-1.83 1.83 3.75 3.75 1.83-1.83z"/>
  </symbol>

  <!-- Bookmark icon -->
  <symbol id="icon-bookmark" viewBox="0 0 24 24">
    <path d="M17 3H7c-1.1 0-2 .9-2 2v16l7-3 7 3V5c0-1.1-.9-2-2-2z"/>
  </symbol>

  <!-- Smile icon -->
  <symbol id="icon-smile" viewBox="0 0 24 24">
    <path d="M11.99 2C6.47 2 2 6.48 2 12s4.47 10 9.99 10C17.52 22 22 17.52 22 12S17.52 2 11.99 2zM12 20c-4.42 0-8-3.58-8-8s3.58-8 8-8 8 3.58 8 8-3.58 8-8 8zm3.5-9c.83 0 1.5-.67 1.5-1.5S16.33 8 15.5 8 14 8.67 14 9.5s.67 1.5 1.5 1.5zm-7 0c.83 0 1.5-.67 1.5-1.5S9.33 8 8.5 8 7 8.67 7 9.5 7.67 11 8.5 11zm3.5 6.5c2.33 0 4.31-1.46 5.11-3.5H6.89c.8 2.04 2.78 3.5 5.11 3.5z"/>
  </symbol>

  <!-- User icon -->
  <symbol id="icon-user" viewBox="0 0 24 24">
    <path d="M12 12c2.21 0 4-1.79 4-4s-1.79-4-4-4-4 1.79-4 4 1.79 4 4 4zm0 2c-2.67 0-8 1.34-8 4v2h16v-2c0-2.66-5.33-4-8-4z"/>
  </symbol>

  <!-- Arrow left icon -->
  <symbol id="icon-arrow-left" viewBox="0 0 24 24">
    <path d="M15.41 7.41L14 6l-6 6 6 6 1.41-1.41L10.83 12z"/>
  </symbol>

  <!-- Arrow right icon -->
  <symbol id="icon-arrow-right" viewBox="0 0 24 24">
    <path d="M10 6L8.59 7.41 13.17 12l-4.58 4.59L10 18l6-6z"/>
  </symbol>

  <!-- Loader icon -->
  <symbol id="icon-loader" viewBox="0 0 24 24">
    <path d="M12 4V2A10 10 0 0 0 2 12h2a8 8 0 0 1 8-8z"/>
  </symbol>

  <!-- Alert triangle icon -->
  <symbol id="icon-alert-triangle" viewBox="0 0 24 24">
    <path d="M1 21h22L12 2 1 21zm12-3h-2v-2h2v2zm0-4h-2v-4h2v4z"/>
  </symbol>

  <!-- Clock icon -->
  <symbol id="icon-clock" viewBox="0 0 24 24">
    <path d="M11.99 2C6.47 2 2 6.48 2 12s4.47 10 9.99 10C17.52 22 22 17.52 22 12S17.52 2 11.99 2zM12 20c-4.42 0-8-3.58-8-8s3.58-8 8-8 8 3.58 8 8-3.58 8-8 8zm.5-13H11v6l5.25 3.15.75-1.23-4.5-2.67z"/>
  </symbol>

  <!-- Users icon -->
  <symbol id="icon-users" viewBox="0 0 24 24">
    <path d="M16 4c0-1.11.89-2 2-2s2 .89 2 2-.89 2-2 2-2-.89-2-2zm4 18v-6h2.5l-2.54-7.63A1.5 1.5 0 0 0 18.54 8H17c-.8 0-1.54.37-2.01 1l-3.7 3.7c-.39.39-.39 1.02 0 1.41.39.39 1.02.39 1.41 0L16 10.83V22h4zm-8-3c0-1.1-.9-2-2-2s-2 .9-2 2 .9 2 2 2 2-.9 2-2zm-2-9c-2.21 0-4-1.79-4-4s1.79-4 4-4 4 1.79 4 4-1.79 4-4 4z"/>
  </symbol>

  <!-- Minus circle icon -->
  <symbol id="icon-minus-circle" viewBox="0 0 24 24">
    <path d="M12 2C6.48 2 2 6.48 2 12s4.48 10 10 10 10-4.48 10-10S17.52 2 12 2zm-2 15l-5-5 1.41-1.41L10 14.17l7.59-7.59L19 8l-9 9z"/>
  </symbol>

  <!-- Plus circle icon -->
  <symbol id="icon-plus-circle" viewBox="0 0 24 24">
    <path d="M12 2C6.48 2 2 6.48 2 12s4.48 10 10 10 10-4.48 10-10S17.52 2 12 2zm5 11h-4v4h-2v-4H7v-2h4V7h2v4h4v2z"/>
  </symbol>

  <!-- Bookmark fill icon -->
  <symbol id="icon-bookmark-fill" viewBox="0 0 24 24">
    <path d="M17 3H7c-1.1 0-2 .9-2 2v16l7-3 7 3V5c0-1.1-.9-2-2-2z" fill="currentColor"/>
  </symbol>

  <!-- Check icon -->
  <symbol id="icon-check" viewBox="0 0 24 24">
    <path d="M9 16.17L4.83 12l-1.42 1.41L9 19 21 7l-1.41-1.41z"/>
  </symbol>
</svg> 